<svg width="140" height="101" viewBox="0 0 140 101" fill="none" xmlns="http://www.w3.org/2000/svg">
<path d="M47.4081 10.2205C50.7003 9.38274 52.1818 8.2099 52.1818 6.8695C52.1818 6.03176 51.3588 4.69137 49.548 2.84833C47.9019 1.00529 46.7496 0 46.0912 0C43.4574 0 39.836 1.84304 35.0622 5.52912C26.8317 5.36157 18.9303 4.52382 11.3582 3.18343C7.57213 2.51324 3.78606 1.67549 0 0.335099C0 1.50794 0.329224 3.01588 1.15228 4.69137C1.97534 6.36686 2.7984 7.70725 3.78606 8.71254C5.43218 10.2205 8.88902 11.2258 13.8274 11.5609C21.7287 11.896 27.3255 11.896 30.4531 11.3933C29.1362 13.0688 26.8317 17.09 23.5394 23.2893C19.2595 31.4992 15.9673 39.5415 13.3335 47.2488C11.3582 53.4481 10.3705 57.9719 10.3705 60.8202C10.3705 62.1606 11.3582 63.501 13.1689 64.5063C15.1442 65.6792 16.7904 66.1818 18.1073 66.1818C18.2719 62.8308 19.4241 57.3017 21.3995 49.9296C24.0333 40.5468 27.4901 31.4992 31.77 22.7867C34.5684 16.9224 36.7083 13.0688 38.1898 11.2258C41.1529 11.5609 44.2805 11.0582 47.4081 10.2205Z" fill="white"/>
<path d="M62.5941 51.8056C63.9164 49.5676 64.7427 48.0182 64.908 46.9853C64.908 46.9853 64.908 46.8131 64.7427 46.8131C64.4122 46.4688 64.2469 46.4688 64.2469 46.8131C62.2636 49.0511 59.2886 51.8056 55.4872 54.5601C52.1816 56.9703 49.2066 58.864 46.3969 59.8969C43.5872 61.102 41.6038 61.4463 40.4469 60.7577C39.6205 60.4134 39.29 59.2083 39.4552 57.1424C39.4552 55.7652 39.6205 54.2158 40.1163 52.3221C47.058 50.9448 52.3469 48.3625 56.1483 44.5751C58.1316 42.6814 59.2886 40.6155 60.115 38.2053C60.7761 35.9673 60.7761 34.0736 59.9497 32.6964C59.2886 31.3191 57.8011 29.7697 55.6525 28.2204C53.5038 26.4988 51.6858 25.638 50.033 25.4659C47.2233 25.2937 44.4136 27.0153 41.7691 30.2862C37.6372 35.2787 34.9927 40.9598 33.8358 47.1574C32.6788 53.0107 32.8441 57.3146 34.4969 60.069C35.4886 61.7906 36.8108 62.9957 38.4636 64.0286C40.2816 65.2337 41.7691 65.9223 43.0913 66.0945C44.9094 66.4388 47.2233 65.7502 49.8677 64.2008C52.5122 62.6514 55.3219 60.2412 58.2969 57.1424C59.9497 55.9373 61.2719 54.0436 62.5941 51.8056ZM46.7275 38.3775C48.0497 36.8281 49.3719 35.4509 50.6941 34.4179C52.0163 33.385 53.1733 32.8685 53.9997 32.8685C55.1566 32.8685 54.8261 34.5901 53.008 38.2053C51.8511 40.7877 49.2066 43.7143 45.24 46.6409C44.083 47.5017 42.7608 48.1903 41.2733 49.0511C42.7608 44.7472 44.7441 41.132 46.7275 38.3775Z" fill="white"/>
<path d="M139.898 33.3599C140.231 31.6676 139.731 30.1445 138.73 29.1291C137.396 27.9445 135.394 27.2675 133.059 27.4368L132.559 29.4676C131.558 33.6984 129.89 37.5908 127.555 41.3139C124.887 45.5447 122.218 49.2679 119.216 52.4833C116.047 55.868 113.878 57.8988 112.544 58.2372L117.548 47.7448C120.717 40.8062 122.051 36.4061 121.718 34.2061C121.551 33.0215 120.55 32.0061 118.882 31.1599C117.214 30.3137 115.546 30.1445 114.045 30.483C113.712 32.5138 113.211 35.3907 112.21 38.9446C111.376 41.6524 110.209 45.2063 108.708 49.4371L108.374 49.7756C108.207 49.9448 108.207 49.9448 108.041 50.114C107.54 50.6217 107.04 51.2987 106.373 51.8064C105.872 52.4833 105.205 52.991 104.538 53.6679C103.871 54.3449 103.37 54.8526 102.87 55.191C99.2006 58.7449 96.3652 60.4373 94.6973 60.4373C94.5305 60.4373 94.3637 60.268 94.3637 59.7603C94.3637 59.4219 94.3637 58.7449 94.5305 57.7295C94.6973 56.8834 94.8641 55.868 95.1977 54.5141C96.6988 48.0832 100.035 38.9446 105.205 27.0983C108.875 27.0983 111.043 26.9291 111.877 26.7598C113.378 26.4214 114.545 25.5752 115.379 24.5598C115.88 23.8829 116.38 23.2059 116.714 22.3598C117.047 21.5136 117.047 21.1751 116.714 20.8367C114.879 21.0059 112.044 21.0059 107.874 21.0059L109.875 16.9443C111.376 13.7289 111.376 11.3596 109.542 9.83651C107.874 8.31341 105.872 7.63647 103.537 7.63647L103.037 8.99034C102.703 9.83651 102.203 11.3596 101.202 13.7289C100.368 16.0981 99.5342 18.4674 98.7003 20.8367C94.5305 20.8367 92.3622 21.0059 91.8618 21.5136C91.5282 21.8521 91.0279 22.6982 90.1939 24.0521C89.6935 25.2367 89.36 26.0829 89.5267 26.2521C89.6935 26.4214 92.0286 26.5906 96.532 26.7598C94.3637 32.683 92.3622 38.4369 90.6943 44.0216C90.1939 45.8832 89.6935 47.5755 89.1932 49.0986C88.526 49.7756 87.8588 50.4525 87.0249 51.4679C86.0241 52.6525 85.1902 53.4987 84.523 54.0064C82.8551 55.6987 81.0204 57.0526 79.1857 58.2372C77.351 59.4219 76.3502 59.9296 75.8498 59.9296C75.3495 59.9296 75.0159 58.7449 74.5155 56.7141C74.0151 54.6833 73.6815 52.1448 73.5148 49.2679C73.6815 49.0986 74.8491 47.7448 77.1842 45.037C81.5208 40.1293 85.8573 35.8984 90.1939 32.3445C91.5282 30.9907 91.695 29.6368 90.3607 28.2829C89.1932 27.0983 87.8588 26.7598 86.1909 26.9291C84.3562 28.9599 80.1864 33.8676 73.8483 41.8216C74.1819 39.6216 74.6823 36.2369 75.3495 31.8368C75.683 30.1445 74.5155 28.7906 71.8468 27.606C70.0121 26.7598 68.6778 26.4214 67.6771 26.4214C67.0099 26.4214 66.5095 28.4522 66.1759 32.3445C65.8424 37.9292 65.6756 42.6678 66.0091 46.5601C66.0091 46.7294 66.1759 48.0832 66.3427 50.9602C62.3397 55.868 59.3375 59.9296 57.336 62.9758C57.1692 63.3142 57.336 63.8219 57.8364 64.6681C58.3367 65.5143 59.0039 66.1912 59.8379 66.6989C60.6718 67.2066 61.0054 67.3758 61.339 67.0374C62.3397 65.1758 64.3412 61.9604 67.5103 57.3911C68.0106 58.9142 68.3442 59.9296 68.6778 60.7757C69.1782 61.9604 70.3457 63.145 72.1804 64.1604C74.0151 65.1758 75.5163 65.6835 76.517 65.6835C77.5178 65.6835 78.8521 65.0066 80.52 63.4835C82.1879 62.1296 83.8558 60.268 85.357 58.2372C86.3577 56.8834 87.3585 55.5295 88.3592 53.8372C88.0256 55.6987 87.8588 57.2218 87.8588 58.2372C87.8588 60.268 88.3592 61.7911 89.5267 62.8065C90.3607 63.4835 91.5282 64.1604 92.8626 64.8373C94.1969 65.5143 95.1977 65.8527 95.698 65.8527C97.8663 65.8527 100.702 63.8219 104.038 59.5911C104.538 58.9142 105.038 58.2372 105.539 57.5603C105.038 58.9142 104.705 59.5911 104.705 59.5911C104.705 60.945 105.038 62.1296 105.539 62.6373C106.206 63.4835 107.207 64.1604 108.207 64.6681C109.208 65.345 110.042 65.5143 110.709 65.5143C111.21 65.5143 112.544 64.6681 114.379 62.8065C116.047 61.2834 117.881 59.2526 119.883 56.7141C123.385 52.3141 126.388 48.0832 128.89 44.1909C126.388 51.9756 123.219 59.5911 119.549 66.8681C115.713 67.8835 111.71 69.7451 107.373 72.2836C102.87 74.8221 99.2007 77.5298 96.532 80.0683C94.3637 82.0991 92.529 84.1299 91.3615 86.33C90.1939 88.3608 89.6935 90.0531 89.6935 91.2377C89.6935 92.4224 91.0279 94.2839 93.6965 96.8224C96.1984 99.3609 98.1999 100.546 100.201 100.546C102.536 100.546 105.372 99.1917 108.708 96.3147C112.044 93.4378 114.712 90.3916 116.714 87.0069C119.216 83.2838 122.218 77.1914 126.054 69.0682C128.389 68.5605 130.891 68.8989 133.726 70.5913C134.394 70.9297 135.561 70.7605 136.896 70.2528C138.397 69.7451 139.231 69.2374 139.231 68.7297C139.231 68.0528 137.896 67.3758 135.061 66.6989C132.392 66.022 129.89 65.8527 127.555 66.022C130.391 60.4373 133.56 52.4833 137.396 41.9908C138.73 37.9292 139.564 35.0523 139.898 33.3599ZM106.539 87.5146C102.703 91.407 99.5342 93.2685 97.1992 93.2685C96.8656 93.2685 96.8656 92.7608 97.1992 91.7454C97.5327 90.73 97.6995 90.0531 98.1999 89.3762C101.035 84.9761 104.038 81.253 107.54 78.0375C111.043 74.9913 114.379 72.7913 117.548 71.4374C113.878 78.376 110.376 83.6222 106.539 87.5146Z" fill="white"/>
</svg>
